<svg xmlns="http://www.w3.org/2000/svg" width="55.543" height="49.815" viewBox="0 0 55.543 49.815">
  <defs>
    <style>
      .cls-1 {
        fill: none;
        stroke-linecap: round;
        stroke-linejoin: bevel;
      }

      .cls-2, .cls-3 {
        stroke: none;
      }

      .cls-3 {
        fill: #e12c11;
      }
    </style>
  </defs>
  <g id="Icon_awesome-shopping-cart" data-name="Icon awesome-shopping-cart" transform="translate(2 2)">
    <g id="Icon_awesome-shopping-cart-2" data-name="Icon awesome-shopping-cart" class="cls-1">
      <path class="cls-2" d="M47.258,26.963,51.488,8.35a2.148,2.148,0,0,0-2.094-2.624H14.246l-.82-4.01A2.148,2.148,0,0,0,11.322,0H2.148A2.148,2.148,0,0,0,0,2.148V3.579A2.148,2.148,0,0,0,2.148,5.727H8.4l6.286,30.732a5.012,5.012,0,1,0,6,.766h18.76a5.01,5.01,0,1,0,5.691-.931l.494-2.172A2.148,2.148,0,0,0,43.537,31.5H19.518l-.586-2.863H45.164A2.148,2.148,0,0,0,47.258,26.963Z"/>
      <path class="cls-3" d="M 42.95201110839844 45.81547927856445 C 45.71955108642578 45.81547927856445 47.96308135986328 43.57195663452148 47.96308135986328 40.80440902709961 C 47.96308135986328 38.82038879394531 46.80981063842773 37.10588836669922 45.13727951049805 36.29400634765625 L 45.63096237182617 34.12170791625977 C 45.93637084960938 32.77784729003906 44.91492080688477 31.49813842773438 43.53678131103516 31.49813842773438 L 19.51784133911133 31.49813842773438 L 18.93217086791992 28.63467788696289 L 45.16377258300781 28.63467788696289 C 46.16652297973633 28.63467788696289 47.03576278686523 27.94081687927246 47.25794982910156 26.96303749084473 L 51.48810195922852 8.350498199462891 C 51.79350280761719 7.006637573242188 50.77205276489258 5.726937770843506 49.3939208984375 5.726937770843506 L 14.24646186828613 5.726937770843506 L 13.42626094818115 1.717187762260437 C 13.22188186645508 0.7177477478981018 12.34244155883789 -2.268066509714117e-06 11.32224178314209 -2.268066509714117e-06 L 2.147601366043091 -2.268066509714117e-06 C 0.96150141954422 -2.268066509714117e-06 1.403808596478484e-06 0.9614977240562439 1.403808596478484e-06 2.147597789764404 L 1.403808596478484e-06 3.57933783531189 C 1.403808596478484e-06 4.765437602996826 0.96150141954422 5.726937770843506 2.147601366043091 5.726937770843506 L 8.400971412658691 5.726937770843506 L 14.68699169158936 36.45865631103516 C 13.18314170837402 37.32350921630859 12.1697416305542 38.94512939453125 12.1697416305542 40.80440902709961 C 12.1697416305542 43.57195663452148 14.41326141357422 45.81547927856445 17.18080139160156 45.81547927856445 C 19.94834136962891 45.81547927856445 22.19187164306641 43.57195663452148 22.19187164306641 40.80440902709961 C 22.19187164306641 39.40184783935547 21.61497116088867 38.13467788696289 20.6864013671875 37.22507858276367 L 39.44631958007813 37.22507858276367 C 38.51784133911133 38.13467788696289 37.94094085693359 39.40184783935547 37.94094085693359 40.80440902709961 C 37.94094085693359 43.57195663452148 40.18447113037109 45.81547927856445 42.95201110839844 45.81547927856445 M 42.95201110839844 47.81547927856445 C 39.08609008789063 47.81547927856445 35.94094085693359 44.67032623291016 35.94094085693359 40.80440902709961 C 35.94094085693359 40.26575469970703 36.00109100341797 39.73685073852539 36.11827087402344 39.22507858276367 L 24.01453971862793 39.22507858276367 C 24.13172721862793 39.73686599731445 24.19187164306641 40.2657356262207 24.19187164306641 40.80440902709961 C 24.19187164306641 44.67032623291016 21.04672050476074 47.81547927856445 17.18080139160156 47.81547927856445 C 13.31489181518555 47.81547927856445 10.1697416305542 44.67032623291016 10.1697416305542 40.80440902709961 C 10.1697416305542 38.81136703491211 11.02598571777344 36.92752075195313 12.47249698638916 35.61246490478516 L 6.768651962280273 7.726937770843506 L 2.147601366043091 7.726937770843506 C -0.1393885910511017 7.726937770843506 -1.999998569488525 5.86632776260376 -1.999998569488525 3.57933783531189 L -1.999998569488525 2.147597789764404 C -1.999998569488525 -0.1393922716379166 -0.1393885910511017 -2.000002384185791 2.147601366043091 -2.000002384185791 L 11.32224178314209 -2.000002384185791 C 13.28380107879639 -2.000002384185791 14.99273109436035 -0.6052122712135315 15.38571166992188 1.316487789154053 L 15.8787727355957 3.726937770843506 L 49.3939208984375 3.726937770843506 C 50.66249084472656 3.726937770843506 51.84395980834961 4.295567512512207 52.63539123535156 5.287027835845947 C 53.42683029174805 6.278507709503174 53.71950149536133 7.556637763977051 53.43836975097656 8.793707847595215 L 49.20822143554688 27.40627861022949 C 49.00069046020508 28.31953811645508 48.48326110839844 29.14430809020996 47.75128173828125 29.72860717773438 C 47.30268478393555 30.08669281005859 46.78387451171875 30.34617805480957 46.23381042480469 30.49342727661133 C 46.43051147460938 30.6623649597168 46.61286544799805 30.85103607177734 46.77826309204102 31.05823707580566 C 47.5697021484375 32.04972839355469 47.86236953735352 33.3278694152832 47.58123016357422 34.56492614746094 L 47.39572906494141 35.38117980957031 C 47.96565246582031 35.84841156005859 48.46131896972656 36.40483474731445 48.86252212524414 37.03247833251953 C 49.58251190185547 38.15884780883789 49.96308135986328 39.46315765380859 49.96308135986328 40.80440902709961 C 49.96308135986328 44.67032623291016 46.81793212890625 47.81547927856445 42.95201110839844 47.81547927856445 Z"/>
    </g>
  </g>
</svg>
