<svg xmlns="http://www.w3.org/2000/svg" width="21.481" height="22.76" viewBox="0 0 21.481 22.76">
  <defs>
    <style>
      .cls-1 {
        fill: #272727;
      }
    </style>
  </defs>
  <path id="Path_36" data-name="Path 36" class="cls-1" d="M-979.276,3402.382c.061-.364.119-.729.183-1.093a4.7,4.7,0,0,1,1.585-2.9c.354-.3.663-.65,1-.971a2.683,2.683,0,0,1,.4-.333.451.451,0,0,1,.574,0c.347.307.678.632,1.018.946a2.141,2.141,0,0,1,.665,1.487,33.382,33.382,0,0,1,.31,3.752c0,.056.106.173.14.165a12.087,12.087,0,0,0,1.626-.425,2.456,2.456,0,0,0,.724-.6c.368-.361.7-.765,1.083-1.1a1.145,1.145,0,0,1,1.347-.112c.255.127.37.1.482-.161a1.7,1.7,0,0,0,.091-.418,1.878,1.878,0,0,1,.022-.294c.022-.066.1-.154.157-.157a.239.239,0,0,1,.178.133,1.029,1.029,0,0,1-.185,1.089.326.326,0,0,0-.042.457,1.483,1.483,0,0,1,0,1.4c-.187.465-.4.92-.6,1.378a2.059,2.059,0,0,0-.079,1.146c.051.375.162.743.24,1.115.031.149.129.166.254.166.685,0,1.371.006,2.056,0,.2,0,.273.073.273.264q0,2.754,0,5.507c0,.174-.065.259-.246.234a.67.67,0,0,0-.091,0c-.321,0-.331.006-.332.336q0,2,0,4c0,.343-.007.685,0,1.028,0,.156-.068.222-.22.219s-.3,0-.457,0h-17.96c-.259,0-.518,0-.777,0s-.294-.034-.293-.309c0-.548,0-1.1,0-1.645q0-1.839,0-3.679c0-.333.023-.354.345-.357s.332-.022.332-.343q0-2.457,0-4.913c0-.336.006-.341.349-.341.929,0,1.858,0,2.788,0a1.329,1.329,0,0,0,.256-.05,1.172,1.172,0,0,0-.12-.254q-1.121-1.384-2.25-2.761c-.356-.437-.714-.871-1.065-1.312a1.72,1.72,0,0,1,.5-2.643c.22-.127.231-.175.063-.377q-.824-.993-1.652-1.982-.263-.316-.525-.632c-.1-.118-.187-.255-.041-.38s.268,0,.361.113q.973,1.165,1.941,2.335c.122.146.246.29.368.436.14.169.273.065.4-.012s.115-.195.052-.316c-.231-.446-.458-.894-.691-1.339-.075-.144-.113-.287.054-.374s.245.055.31.179c.238.459.478.917.708,1.379.071.143.151.18.283.084a.57.57,0,0,1,.06-.033c.393-.219.383-.238.27-.68-.193-.759-.363-1.523-.527-2.289-.016-.076.077-.175.119-.263.083.048.216.078.24.146a8.069,8.069,0,0,1,.221.813c.126.532.252,1.065.367,1.6.039.179.078.237.282.153a1.606,1.606,0,0,1,2.219,1.013c.246.766.438,1.549.655,2.325.044.158.092.315.138.472Zm3.676,10.228v0h8.294c.282,0,.565-.013.845.014.23.022.295-.058.294-.275q-.008-2.3,0-4.593c0-.222-.081-.289-.3-.286-.845.009-1.689,0-2.534,0-2.292.006-4.585.018-6.877.019-1.72,0-3.441-.013-5.161-.019-.167,0-.334.021-.5.02-1.081,0-2.163-.009-3.244-.024-.223,0-.291.08-.29.294.006,1.516,0,3.031,0,4.547,0,.274.032.3.3.3Zm-.7,5.6h8.018c.365,0,.731,0,1.1,0,.307,0,.334-.03.335-.345,0-.472,0-.944,0-1.416,0-1.035,0-2.071,0-3.107,0-.212-.077-.295-.281-.278-.053,0-.107,0-.16,0H-984.9c-.2,0-.4,0-.594,0-.17,0-.248.065-.247.245,0,1.523,0,3.046.005,4.569,0,.307.03.333.345.333Zm-.791-11.166v0c.244,0,.488-.008.731,0,.216.01.3-.082.3-.294a3.433,3.433,0,0,1,1.73-2.956.672.672,0,0,0,.375-.7c-.114-1.3-.226-2.605-.366-3.905a1.2,1.2,0,0,0-.287-.633c-.348-.389-.74-.74-1.125-1.093-.041-.038-.177-.017-.24.022a1.951,1.951,0,0,0-.309.269c-.42.408-.838.819-1.258,1.227a3.359,3.359,0,0,0-.926,1.523,8.82,8.82,0,0,0-.337,1.439,13.812,13.812,0,0,0-.058,2.046,5.781,5.781,0,0,0,.275,1.171c.146.552.3,1.1.451,1.65a.281.281,0,0,0,.333.232C-977.563,3407.033-977.326,3407.046-977.09,3407.046Zm-2.9,0h1.165c.244,0,.3-.049.245-.282-.093-.4-.205-.794-.315-1.189-.278-1-.56-2-.837-3.005-.264-.952-.516-1.906-.788-2.855a1.2,1.2,0,0,0-1.525-.79,4.115,4.115,0,0,0-.571.28c-.764.41-1.534.81-2.286,1.241a1.236,1.236,0,0,0-.393,1.8c.749.978,1.543,1.922,2.318,2.879.1.12.206.1.325.032q.567-.318,1.138-.629c.254-.138.507-.278.771-.395a.312.312,0,0,1,.256.053c.033.023.014.152-.015.218a.34.34,0,0,1-.151.129q-.83.456-1.663.9c-.241.129-.259.183-.091.39.278.343.546.7.843,1.02a.662.662,0,0,0,.409.188C-980.763,3407.064-980.373,3407.048-979.985,3407.047Zm7.78,0v0h3.152c.274,0,.328-.064.266-.323-.053-.222-.118-.441-.161-.664a2.855,2.855,0,0,1,.165-1.871,9.376,9.376,0,0,0,.581-1.431.923.923,0,0,0-.546-1.171.883.883,0,0,0-1.145.171c-.342.333-.651.7-.963,1.063a2.55,2.55,0,0,1-1.434.829c-.481.107-.969.2-1.439.342a3,3,0,0,0-1.906,2.8c.011.187.075.265.278.263C-974.307,3407.043-973.256,3407.048-972.205,3407.048Z" transform="translate(987.248 -3395.872)"/>
</svg>
