<svg xmlns="http://www.w3.org/2000/svg" width="20.307" height="19.183" viewBox="0 0 20.307 19.183">
  <defs>
    <style>
      .cls-1 {
        fill: #272727;
      }
    </style>
  </defs>
  <path id="Path_46" data-name="Path 46" class="cls-1" d="M-1500.421,3785.774c-.007.1-.02.2-.02.294q0,4.424,0,8.849c0,.427-.01.437-.443.437h-15.744c-.45,0-.462-.01-.462-.455q0-4.441,0-8.88a.4.4,0,0,0-.106-.271c-.152.269-.309.536-.455.809-.109.2-.23.273-.447.125a4.272,4.272,0,0,0-.631-.352c-.236-.109-.235-.251-.124-.454q1.569-2.835,3.132-5.674a.558.558,0,0,0,.045-.083,2.543,2.543,0,0,1,1.581-1.488c1.664-.747,3.3-1.56,4.94-2.36a.8.8,0,0,1,.77,0q2.875,1.4,5.761,2.764c.366.174.463.532.631.835,1.1,1.99,2.189,3.991,3.291,5.982.131.237.127.377-.134.5a4.252,4.252,0,0,0-.546.312c-.23.149-.392.139-.52-.136s-.284-.508-.427-.761Zm-16.32,4.16h.006q0,2.314,0,4.629c0,.432.005.433.446.433.9,0,1.806-.01,2.709,0,.266,0,.343-.089.34-.344-.01-1.061,0-2.121,0-3.181q0-1.417,0-2.834c0-.2.032-.336.293-.335q4.094.017,8.187.015c.477,0,.478-.009.477.487q0,2.866,0,5.732c0,.456,0,.457.442.458q1.307,0,2.614,0c.41,0,.433-.021.433-.42,0-3.086,0-6.173-.015-9.259a1.869,1.869,0,0,0-.225-.829c-.683-1.288-1.4-2.558-2.088-3.844a1.3,1.3,0,0,0-.607-.6c-1.583-.751-3.162-1.512-4.751-2.25a.745.745,0,0,0-.558-.007q-2.439,1.137-4.856,2.321a1.023,1.023,0,0,0-.423.4c-.743,1.327-1.478,2.658-2.192,4a1.9,1.9,0,0,0-.219.833C-1516.752,3786.868-1516.741,3788.4-1516.741,3789.934Zm17.13-3.61c.61-.234.621-.271.349-.764-.9-1.636-1.836-3.254-2.679-4.918a3.08,3.08,0,0,0-1.922-1.823.928.928,0,0,1-.142-.067c-1.485-.711-2.969-1.427-4.46-2.125a.7.7,0,0,0-.524-.035c-1.779.827-3.545,1.681-5.321,2.513a1.574,1.574,0,0,0-.874.8c-.136.317-.325.61-.491.914q-1.356,2.468-2.715,4.934c-.1.184-.089.3.1.41.316.188.343.194.525-.136,1.073-1.947,2.14-3.9,3.221-5.84a.958.958,0,0,1,.4-.374c1.635-.786,3.283-1.547,4.914-2.342a.972.972,0,0,1,.944,0c1.643.794,3.3,1.568,4.943,2.356a.692.692,0,0,1,.3.254c.915,1.651,1.82,3.308,2.728,4.962C-1500.085,3785.472-1499.851,3785.892-1499.611,3786.324Zm-6.994,5.2c.055-.1.081-.164.115-.217.5-.775,1-1.547,1.495-2.325.143-.226.093-.3-.209-.3q-1.431,0-2.861.006a1.257,1.257,0,0,0-.261.058,1.075,1.075,0,0,0,.082.252q.6.957,1.22,1.906C-1506.908,3791.086-1506.782,3791.262-1506.605,3791.521Zm-4.3-.008,1.766-2.768a1.34,1.34,0,0,0-.215-.055q-1.525,0-3.051,0c-.285,0-.213.162-.119.311.292.459.588.917.883,1.375Zm1.73,3.451a1.8,1.8,0,0,0-.109-.266q-.71-1.114-1.427-2.225c-.183-.283-.219-.283-.4,0q-.707,1.1-1.408,2.2a1.708,1.708,0,0,0-.114.29Zm4.337.006-1.793-2.8-1.791,2.8Zm-3.663-5.714-.058.03v5.129c.58-.794,1.1-1.6,1.606-2.417a.444.444,0,0,0-.034-.371c-.213-.372-.452-.729-.684-1.09C-1507.946,3790.11-1508.224,3789.684-1508.5,3789.256Zm-.464-.018a1.23,1.23,0,0,0-.164.159c-.484.746-.974,1.488-1.439,2.247a.489.489,0,0,0,.021.423c.454.74.932,1.464,1.4,2.2a1.032,1.032,0,0,1,.079.229l.1-.106Zm-3.762.093-.069.024v4.981c.48-.625.865-1.287,1.314-1.9a.84.84,0,0,0,.017-1.158C-1511.922,3790.656-1512.309,3789.982-1512.726,3789.331Zm7.923,5,.065-.021V3789.3a1.83,1.83,0,0,0-.164.181c-.444.687-.877,1.38-1.332,2.06a.494.494,0,0,0,.006.627c.4.6.788,1.212,1.181,1.818C-1504.969,3794.1-1504.884,3794.215-1504.8,3794.333Z" transform="translate(1518.925 -3776.172)"/>
</svg>
