<svg xmlns="http://www.w3.org/2000/svg" width="40.752" height="55.843" viewBox="0 0 40.752 55.843">
  <defs>
    <style>
      .cls-1 {
        fill: none;
        stroke-linecap: round;
        stroke-linejoin: bevel;
      }

      .cls-2, .cls-3 {
        stroke: none;
      }

      .cls-3 {
        fill: #e12c11;
      }
    </style>
  </defs>
  <g id="Icon_material-location-on" data-name="Icon material-location-on" transform="translate(2 2)">
    <g id="Icon_material-location-on-2" data-name="Icon material-location-on" class="cls-1" transform="translate(-7.5 -3)">
      <path class="cls-2" d="M25.876,3A18.363,18.363,0,0,0,7.5,21.376C7.5,35.158,25.876,55.5,25.876,55.5S44.252,35.158,44.252,21.376A18.362,18.362,0,0,0,25.876,3Zm0,24.939a6.563,6.563,0,1,1,6.563-6.563A6.565,6.565,0,0,1,25.876,27.939Z"/>
      <path class="cls-3" d="M 25.87596130371094 2.999996185302734 C 15.71668243408203 2.999996185302734 7.5 11.21667861938477 7.5 21.37595748901367 C 7.5 35.15791702270508 25.87596130371094 55.50272750854492 25.87596130371094 55.50272750854492 C 25.87596130371094 55.50272750854492 44.25189971923828 35.15791702270508 44.25189971923828 21.37595748901367 C 44.25189971923828 11.21667861938477 36.03523254394531 2.999996185302734 25.87596130371094 2.999996185302734 M 25.87596130371094 27.93879699707031 C 22.25327110290527 27.93879699707031 19.3131217956543 24.9986457824707 19.3131217956543 21.37595748901367 C 19.3131217956543 17.75326919555664 22.25327110290527 14.81311798095703 25.87596130371094 14.81311798095703 C 29.4986515045166 14.81311798095703 32.43878936767578 17.75326919555664 32.43878936767578 21.37595748901367 C 32.43878936767578 24.9986457824707 29.4986515045166 27.93879699707031 25.87596130371094 27.93879699707031 M 25.87596130371094 0.9999961853027344 C 28.62829208374023 0.9999961853027344 31.29820251464844 1.538406372070313 33.8115234375 2.600276947021484 C 36.2388916015625 3.625827789306641 38.41785049438477 5.094009399414063 40.28787231445313 6.964038848876953 C 42.15789031982422 8.834056854248047 43.62607192993164 11.01301574707031 44.65163040161133 13.44039916992188 C 45.71349334716797 15.95371627807617 46.25189971923828 18.62361907958984 46.25189971923828 21.37595748901367 C 46.25189971923828 24.80324935913086 45.22707366943359 28.8286075592041 43.20587158203125 33.34021759033203 C 41.63482284545898 36.84702682495117 39.45328140258789 40.67781829833984 36.72186279296875 44.72617721557617 C 32.10197448730469 51.57351684570313 27.55161094665527 56.6313362121582 27.36017227172852 56.84329605102539 L 24.39175224304199 56.84329605102539 C 24.2003116607666 56.6313362121582 19.64994049072266 51.57351684570313 15.03005218505859 44.72617721557617 C 12.29862213134766 40.67781829833984 10.11709213256836 36.84702682495117 8.546043395996094 33.34022521972656 C 6.524829864501953 28.8286075592041 5.5 24.80324935913086 5.5 21.37595748901367 C 5.5 18.62361907958984 6.038410186767578 15.95370864868164 7.10028076171875 13.44039916992188 C 8.125831604003906 11.01301574707031 9.594013214111328 8.834056854248047 11.46404266357422 6.964038848876953 C 13.33406066894531 5.094009399414063 15.51302337646484 3.625827789306641 17.94040298461914 2.600276947021484 C 20.45371246337891 1.538406372070313 23.12362098693848 0.9999961853027344 25.87596130371094 0.9999961853027344 Z M 25.87596130371094 25.93879699707031 C 28.39191246032715 25.93879699707031 30.43879127502441 23.89191818237305 30.43879127502441 21.37595748901367 C 30.43879127502441 18.8599967956543 28.39191246032715 16.81311798095703 25.87596130371094 16.81311798095703 C 23.3600025177002 16.81311798095703 21.3131217956543 18.8599967956543 21.3131217956543 21.37595748901367 C 21.3131217956543 23.89191818237305 23.3600025177002 25.93879699707031 25.87596130371094 25.93879699707031 Z"/>
    </g>
  </g>
</svg>
