<svg id="Layer_1" data-name="Layer 1" xmlns="http://www.w3.org/2000/svg" viewBox="0 0 240 120"><defs><style>.cls-1,.cls-3{fill:#62b646;}.cls-1{stroke:#62b646;}.cls-1,.cls-4{stroke-miterlimit:10;}.cls-2{fill:#020202;}.cls-4{fill:none;stroke:#df2f26;}</style></defs><title>VitaPure logo svg</title><path class="cls-1" d="M54.45,105.86v5.07a9,9,0,0,0,.14,1.91,2.16,2.16,0,0,0,.53,1,2,2,0,0,0,.81.54,3.67,3.67,0,0,0,1.18.21v.29H49v-.29a3.22,3.22,0,0,0,1.16-.2,2.16,2.16,0,0,0,.85-.52,2.47,2.47,0,0,0,.51-1.08,9.33,9.33,0,0,0,.15-1.89v-9.36a16.34,16.34,0,0,0-.09-1.68,2.11,2.11,0,0,0-1.09-1.67A3.56,3.56,0,0,0,49,97.88v-.29H62.27l.36,4.12-.29.07a8.4,8.4,0,0,0-.58-1.45,4.19,4.19,0,0,0-1.68-1.71,4.4,4.4,0,0,0-1.43-.5A14.31,14.31,0,0,0,56.41,98h-2v7.49H55a4.51,4.51,0,0,0,3.26-1,2.92,2.92,0,0,0,.67-1,5.74,5.74,0,0,0,.3-1.55l.3,0-.08,7.69h-.3a6.64,6.64,0,0,0-.48-2,2.73,2.73,0,0,0-1-1.14,3.83,3.83,0,0,0-1.25-.46A10,10,0,0,0,54.45,105.86Z"/><path class="cls-1" d="M66.5,105.89a3.82,3.82,0,0,1,1-1.21,4,4,0,0,1,2.4-.75,1.93,1.93,0,0,1,1.26.37,1,1,0,0,1,.39.81.81.81,0,0,1-.23.59.85.85,0,0,1-.61.23,1,1,0,0,1-.75-.36l-.39-.43a1.46,1.46,0,0,0-1.1-.49q-.87,0-1.35,1.11a8.07,8.07,0,0,0-.48,3.11v3.33a6.13,6.13,0,0,0,.1,1.26,1.32,1.32,0,0,0,.4.67,2.67,2.67,0,0,0,1.3.52v.26H62.87v-.26a3.44,3.44,0,0,0,1.1-.29,1.32,1.32,0,0,0,.53-.62,2.94,2.94,0,0,0,.2-.88c0-.39,0-1,0-1.7V108c0-.86,0-1.47-.06-1.82a1.94,1.94,0,0,0-.28-.85,1.36,1.36,0,0,0-.52-.52,2.31,2.31,0,0,0-.88-.19v-.27l3.28-.46A11.12,11.12,0,0,1,66.5,105.89Z"/><path class="cls-1" d="M74.6,108c0,.41,0,.71,0,.9a7.48,7.48,0,0,0,.32,2.16,5.42,5.42,0,0,0,.88,1.75,4.07,4.07,0,0,0,1.41,1.12,4,4,0,0,0,1.77.4,3.47,3.47,0,0,0,1.29-.23,2.76,2.76,0,0,0,1-.63,3.53,3.53,0,0,0,.79-1.42l.26.09a3.56,3.56,0,0,1-1.41,2.24,5,5,0,0,1-2.89.75,6.61,6.61,0,0,1-2.68-.49,4.79,4.79,0,0,1-1.89-1.53,5.67,5.67,0,0,1-1.08-3.52,5.38,5.38,0,0,1,2-4.48,5.28,5.28,0,0,1,3.38-1.19,4.81,4.81,0,0,1,1.88.37A3.82,3.82,0,0,1,82,108Zm5.54-.5a4.88,4.88,0,0,0-.47-2,2.61,2.61,0,0,0-.91-1,2.15,2.15,0,0,0-1.21-.37,2.49,2.49,0,0,0-1.91.94,4.22,4.22,0,0,0-1,2.36Z"/><path class="cls-1" d="M84.5,114.91v-3.59h.2a7.35,7.35,0,0,0,.89,2.11,2.77,2.77,0,0,0,2.28,1.43,2.11,2.11,0,0,0,1.38-.48,1.88,1.88,0,0,0,.63-1.51,2.28,2.28,0,0,0-.45-1.4,3.28,3.28,0,0,0-.64-.58,13.52,13.52,0,0,0-1.3-.75,9.15,9.15,0,0,1-2.13-1.42,2.7,2.7,0,0,1-.76-1.88,2.84,2.84,0,0,1,.76-2,3.07,3.07,0,0,1,2.33-.94,3.17,3.17,0,0,1,1.2.23l.43.19a1.13,1.13,0,0,0,.36.08c.16,0,.31-.13.46-.38h.25l.14,2.88h-.27a6.26,6.26,0,0,0-.29-1,3.24,3.24,0,0,0-.45-.71,3,3,0,0,0-.91-.75,2.13,2.13,0,0,0-1-.28,1.64,1.64,0,0,0-1.21.52,1.74,1.74,0,0,0-.5,1.26,1.61,1.61,0,0,0,.45,1.12,4,4,0,0,0,1.39.92l1.34.61a4.55,4.55,0,0,1,1.8,1.36,3.13,3.13,0,0,1,.59,1.92,3,3,0,0,1-.86,2.21,3.42,3.42,0,0,1-2.54,1,4.75,4.75,0,0,1-1.7-.33l-.67-.25a1.17,1.17,0,0,0-.29,0,.76.76,0,0,0-.68.38Z"/><path class="cls-1" d="M96.61,97.08v8.69a8.75,8.75,0,0,1,.79-.85,3.31,3.31,0,0,1,.82-.53,4.78,4.78,0,0,1,2.11-.46,4.63,4.63,0,0,1,2.47.6,2.34,2.34,0,0,1,1,1.08,5.48,5.48,0,0,1,.26,1.92v4.67a5.42,5.42,0,0,0,.11,1.26,1.24,1.24,0,0,0,.39.67,2.71,2.71,0,0,0,1.31.52v.26h-5.61v-.26a3.59,3.59,0,0,0,1-.22,1.28,1.28,0,0,0,.51-.43,2.06,2.06,0,0,0,.32-.86,11,11,0,0,0,.08-1.61v-4a6.23,6.23,0,0,0-.13-1.45,2.43,2.43,0,0,0-.47-.92,2.28,2.28,0,0,0-1.83-.75c-2,0-3.06,1.62-3.06,4.84v3a6.13,6.13,0,0,0,.1,1.26,1.32,1.32,0,0,0,.4.67,2.67,2.67,0,0,0,1.3.52v.26H92.81v-.26a3.44,3.44,0,0,0,1.1-.29,1.3,1.3,0,0,0,.53-.63,2.79,2.79,0,0,0,.2-.88c0-.39,0-1,0-1.7v-10c0-.86,0-1.47-.06-1.82a2,2,0,0,0-.28-.87,1.3,1.3,0,0,0-.52-.5,2.31,2.31,0,0,0-.88-.19v-.28Z"/><path class="cls-1" d="M119,104.37l4.25,5.89c.59-1.11,1-2,1.24-2.55a4.13,4.13,0,0,0,.36-1.51c0-.82-.59-1.31-1.77-1.48v-.26H128v.25a3.15,3.15,0,0,0-1,.2,2,2,0,0,0-.7.45,9.71,9.71,0,0,0-1.6,2.59l-.39.81c-.21.45-.52,1-.93,1.79.32.42.7.87,1.14,1.36a15.27,15.27,0,0,0,1.16,1.2,7,7,0,0,0,1.26,1,2.16,2.16,0,0,0,1,.3,1.34,1.34,0,0,0,.91-.31,2.43,2.43,0,0,0,.65-1l.25.12a2.64,2.64,0,0,1-2.73,2.15,4.38,4.38,0,0,1-1.46-.26,5,5,0,0,1-1.38-.74,12,12,0,0,1-2-1.91,14.84,14.84,0,0,1-.91,1.21,5,5,0,0,1-3.83,1.7,5.25,5.25,0,0,1-2-.38,4.07,4.07,0,0,1-1.56-1,4.25,4.25,0,0,1-1.14-3,5.44,5.44,0,0,1,1.1-3.3,6.24,6.24,0,0,1,1-1.1,16.36,16.36,0,0,1,1.66-1.2l.2-.14a14.91,14.91,0,0,1-1.12-1.76,6,6,0,0,1-.77-2.68,3.37,3.37,0,0,1,.35-1.46,3.19,3.19,0,0,1,1.31-1.45,4.13,4.13,0,0,1,2.08-.49,3.89,3.89,0,0,1,2.59.85,2.75,2.75,0,0,1,1,2.21,3.08,3.08,0,0,1-.52,1.75,5.6,5.6,0,0,1-1.7,1.51C119.53,104,119.15,104.22,119,104.37Zm-1.83,1.13a4.38,4.38,0,0,0-1.63,1.8,5.61,5.61,0,0,0-.58,2.57,6,6,0,0,0,.3,1.9,4.92,4.92,0,0,0,.83,1.54,3.4,3.4,0,0,0,2.59,1.21,3.28,3.28,0,0,0,2.1-.74,4.1,4.1,0,0,0,.63-.62c.18-.23.41-.56.69-1Zm1.59-1.41a6.26,6.26,0,0,0,.89-.83,3.52,3.52,0,0,0,.53-.85,4.73,4.73,0,0,0,.44-2,3.07,3.07,0,0,0-.61-2,2,2,0,0,0-1.63-.75,1.88,1.88,0,0,0-1.43.57,2.06,2.06,0,0,0-.54,1.48,2.79,2.79,0,0,0,.22,1.09,9.65,9.65,0,0,0,.84,1.5C117.82,102.88,118.25,103.49,118.71,104.09Z"/><path class="cls-1" d="M144.06,98c-.53,0-1.1,0-1.71,0a9.54,9.54,0,0,0-2.91.5,3.33,3.33,0,0,0-1.58,1.36,6.92,6.92,0,0,0-.88,2.41l-.29,0,.23-4.68h17.17l.23,4.68-.29,0A6,6,0,0,0,153,99.63a4,4,0,0,0-2.12-1.31,16.62,16.62,0,0,0-4-.34v13a9,9,0,0,0,.15,1.92,2.08,2.08,0,0,0,.54,1,2.12,2.12,0,0,0,.8.53,3.94,3.94,0,0,0,1.18.2v.29h-8.11v-.29a3.94,3.94,0,0,0,1.18-.2,2.23,2.23,0,0,0,.81-.53,2.27,2.27,0,0,0,.54-1,9.93,9.93,0,0,0,.14-1.93Z"/><path class="cls-1" d="M165.64,113.68l.21.13a2,2,0,0,1-2.09,1.33,2.49,2.49,0,0,1-1.5-.44,3.54,3.54,0,0,1-.81-1,8.13,8.13,0,0,1-1.29,1,3.84,3.84,0,0,1-1.92.46,3.35,3.35,0,0,1-2.21-.67,2.22,2.22,0,0,1-.82-1.82,2.45,2.45,0,0,1,.67-1.76,3,3,0,0,1,.87-.63,8.07,8.07,0,0,1,1.44-.47c.74-.19,1.28-.35,1.63-.47a3.46,3.46,0,0,0,.88-.46,1.52,1.52,0,0,0,.56-.69,3.13,3.13,0,0,0,.15-1.09,3.38,3.38,0,0,0-.56-2.17,1.85,1.85,0,0,0-.65-.51,2,2,0,0,0-.83-.19,1.63,1.63,0,0,0-1.54,1l-.31.73a.92.92,0,0,1-.92.6,1,1,0,0,1-.72-.29.94.94,0,0,1-.29-.71c0-.43.3-.8.91-1.09a5.27,5.27,0,0,1,1.23-.38,7.09,7.09,0,0,1,1.43-.15,6.89,6.89,0,0,1,1.64.21,5.42,5.42,0,0,1,1.42.52,2,2,0,0,1,1,1.22,5.45,5.45,0,0,1,.1,1.28v4.69a8.1,8.1,0,0,0,.11,1.63,1,1,0,0,0,1,.9,1.17,1.17,0,0,0,.61-.14A2.06,2.06,0,0,0,165.64,113.68Zm-4.2-5a8.24,8.24,0,0,1-1.51,1,14.37,14.37,0,0,0-1.28.75,3.68,3.68,0,0,0-.64.61,2.63,2.63,0,0,0-.6,1.72,2.06,2.06,0,0,0,.47,1.38,1.45,1.45,0,0,0,1.17.54,2,2,0,0,0,1.17-.38,2.51,2.51,0,0,0,.83-1,6.06,6.06,0,0,0,.39-2.46Z"/><path class="cls-1" d="M166.74,114.91v-3.59H167a7.09,7.09,0,0,0,.88,2.11,2.77,2.77,0,0,0,2.28,1.43,2.11,2.11,0,0,0,1.38-.48,1.88,1.88,0,0,0,.63-1.51,2.28,2.28,0,0,0-.45-1.4,3,3,0,0,0-.64-.58,13.52,13.52,0,0,0-1.3-.75,9.15,9.15,0,0,1-2.13-1.42,2.7,2.7,0,0,1-.76-1.88,2.81,2.81,0,0,1,.77-2,3,3,0,0,1,2.32-.94,3.17,3.17,0,0,1,1.2.23l.44.19a1,1,0,0,0,.35.08c.16,0,.31-.13.46-.38h.25l.14,2.88h-.26a7.39,7.39,0,0,0-.3-1,3.24,3.24,0,0,0-.45-.71,3,3,0,0,0-.91-.75,2.13,2.13,0,0,0-1-.28,1.66,1.66,0,0,0-1.21.52,1.74,1.74,0,0,0-.5,1.26,1.61,1.61,0,0,0,.45,1.12A4.08,4.08,0,0,0,170,108l1.34.61a4.55,4.55,0,0,1,1.8,1.36,3.14,3.14,0,0,1,.6,1.92,3,3,0,0,1-.87,2.21,3.4,3.4,0,0,1-2.54,1,4.79,4.79,0,0,1-1.7-.33l-.67-.25a1.17,1.17,0,0,0-.29,0,.73.73,0,0,0-.67.38Z"/><path class="cls-1" d="M178.34,104.13h3.23v.48h-3.23V112a3.13,3.13,0,0,0,.46,1.91,1.63,1.63,0,0,0,.63.49,2,2,0,0,0,.85.18,1.86,1.86,0,0,0,.95-.23,3.42,3.42,0,0,0,.83-.86l.19.16a2.61,2.61,0,0,1-1.17,1.13,4.24,4.24,0,0,1-1.89.37,3.34,3.34,0,0,1-2.18-.58,1.44,1.44,0,0,1-.48-.73,6.59,6.59,0,0,1-.12-1.53v-7.69h-1.35v-.21a3.56,3.56,0,0,0,1.52-1,5.39,5.39,0,0,0,.68-.94,6.48,6.48,0,0,0,.48-1.2l.13-.41h.47Z"/><path class="cls-1" d="M181.41,104.13h4.93v.27a2.38,2.38,0,0,0-.75.21.91.91,0,0,0-.49.86,6.09,6.09,0,0,0,.51,1.81l2.13,5.44,1.85-4.58a7.61,7.61,0,0,0,.68-2.42,1.25,1.25,0,0,0-.31-.9,1.52,1.52,0,0,0-.93-.42v-.27h3.63v.27a3.76,3.76,0,0,0-.81.32,1.92,1.92,0,0,0-.5.52,20,20,0,0,0-1.17,2.5l-3.68,8.94a9.33,9.33,0,0,1-1.06,2.08,2.21,2.21,0,0,1-1.74.8,2.07,2.07,0,0,1-1.09-.26.79.79,0,0,1-.41-.68.65.65,0,0,1,.24-.53,1,1,0,0,1,.63-.19,2,2,0,0,1,.76.17l.54.21a1.23,1.23,0,0,0,.29,0c.52,0,1-.39,1.27-1.18l.4-1a2.67,2.67,0,0,0,.25-.94,5.28,5.28,0,0,0-.48-1.64l-2.63-6.32-.38-.92c-.23-.54-.41-.92-.53-1.15a1.77,1.77,0,0,0-.38-.49,1.64,1.64,0,0,0-.77-.3Z"/><path class="cls-2" d="M0,40.51H22.27v.77a11.41,11.41,0,0,0-3.64.78,4,4,0,0,0-1.69,1.57,4.37,4.37,0,0,0-.64,2.31,6.5,6.5,0,0,0,.17,1.55c.11.45.45,1.43,1,2.94l10,27.17,9.68-23.83q2-5,2-7.32a7,7,0,0,0-.41-2.4,4.24,4.24,0,0,0-1.08-1.72,4.06,4.06,0,0,0-1.48-.81,7.55,7.55,0,0,0-2.09-.24v-.77h15v.77a8.32,8.32,0,0,0-3.22.92,8.82,8.82,0,0,0-2.61,2.26,17,17,0,0,0-1.78,2.95Q40.6,49.29,39,53.2L25.14,86.57H23.72L10.29,52.08q-2.62-6.78-4.22-8.6a5.81,5.81,0,0,0-2.48-1.67A10.66,10.66,0,0,0,0,41.28Z"/><path class="cls-2" d="M49.27,58.6,59,57.38V76.82l0,2.55a14.91,14.91,0,0,0,.27,3.35,3.45,3.45,0,0,0,1.05,1.76,6.89,6.89,0,0,0,3.47,1.38v.71H48.9v-.71a9,9,0,0,0,2.9-.75,3.53,3.53,0,0,0,1.42-1.66,7.56,7.56,0,0,0,.52-2.34c.1-1,.15-2.54.15-4.51V68.3a44.71,44.71,0,0,0-.17-4.85A5.2,5.2,0,0,0,53,61.19a3.52,3.52,0,0,0-1.38-1.36,6,6,0,0,0-2.33-.52Z"/><path class="cls-2" d="M74.38,57.89H83v1.28H74.38V78.81q0,3.54,1.21,5.06a4.27,4.27,0,0,0,1.68,1.32,5.43,5.43,0,0,0,2.25.47A4.75,4.75,0,0,0,82,85a8.61,8.61,0,0,0,2.22-2.28l.51.44a7,7,0,0,1-3.12,3,11.44,11.44,0,0,1-5,1c-2.66,0-4.59-.52-5.81-1.55a3.76,3.76,0,0,1-1.28-1.94,18.45,18.45,0,0,1-.3-4.07V59.17H65.64v-.54a9.47,9.47,0,0,0,4-2.73,14.58,14.58,0,0,0,1.8-2.48,18.07,18.07,0,0,0,1.29-3.19l.34-1.12h1.26Z"/><path class="cls-2" d="M112.44,83.3l.57.34q-1.22,3.54-5.56,3.54a6.49,6.49,0,0,1-4-1.18,8.91,8.91,0,0,1-2.16-2.7A21.53,21.53,0,0,1,97.88,86a10.34,10.34,0,0,1-5.1,1.22,9,9,0,0,1-5.9-1.79,5.92,5.92,0,0,1-2.18-4.83,6.58,6.58,0,0,1,1.79-4.69,8.22,8.22,0,0,1,2.33-1.67,23.34,23.34,0,0,1,3.81-1.26c2-.5,3.4-.91,4.34-1.25a8.85,8.85,0,0,0,2.34-1.22,4,4,0,0,0,1.49-1.82,8.26,8.26,0,0,0,.4-2.9c0-2.63-.49-4.56-1.48-5.77A4.91,4.91,0,0,0,98,58.63a5,5,0,0,0-2.21-.51,4.32,4.32,0,0,0-4.08,2.67l-.85,2a2.44,2.44,0,0,1-2.43,1.58,2.63,2.63,0,0,1-1.92-.76,2.53,2.53,0,0,1-.78-1.9c0-1.15.82-2.12,2.44-2.9a14.5,14.5,0,0,1,3.26-1,19.3,19.3,0,0,1,3.8-.39,18.77,18.77,0,0,1,4.36.54,14.84,14.84,0,0,1,3.79,1.39,5.37,5.37,0,0,1,2.74,3.23,15,15,0,0,1,.27,3.41V78.44a22.53,22.53,0,0,0,.27,4.32,2.67,2.67,0,0,0,2.76,2.39,3,3,0,0,0,1.64-.37A5.77,5.77,0,0,0,112.44,83.3ZM101.27,70a22.84,22.84,0,0,1-4,2.67,35.63,35.63,0,0,0-3.4,2,9.05,9.05,0,0,0-1.72,1.62,7,7,0,0,0-1.58,4.55,5.47,5.47,0,0,0,1.23,3.68A3.9,3.9,0,0,0,94.91,86a5.27,5.27,0,0,0,3.11-1,6.33,6.33,0,0,0,2.21-2.75,16.19,16.19,0,0,0,1-6.54Z"/><path class="cls-2" d="M128.27,63.86V76a24.5,24.5,0,0,0,.39,5.11,5.63,5.63,0,0,0,1.43,2.75,5.82,5.82,0,0,0,2.11,1.4,10.81,10.81,0,0,0,3.15.56v.77H113.79V85.8a10.82,10.82,0,0,0,3.16-.56,5.91,5.91,0,0,0,2.11-1.4,5.54,5.54,0,0,0,1.45-2.74,26.15,26.15,0,0,0,.37-5.12V51.1a29.67,29.67,0,0,0-.26-4.47,6.65,6.65,0,0,0-.86-2.54,5.48,5.48,0,0,0-2.22-2,9.37,9.37,0,0,0-3.51-.8h-.24v-.77h20.35a41.32,41.32,0,0,1,7.86.54,11.37,11.37,0,0,1,4.63,2.16,11.61,11.61,0,0,1,4.79,9.72q0,6.16-4.86,9a14.38,14.38,0,0,1-6.14,1.79c-.77.07-2.61.1-5.54.1Zm0-1.08h3.3a20.59,20.59,0,0,0,5.15-.49,7.59,7.59,0,0,0,3.22-1.8,10.28,10.28,0,0,0,3.31-8,13.1,13.1,0,0,0-1-5.08,9.34,9.34,0,0,0-2.75-3.76,8.88,8.88,0,0,0-4.89-2c-.52,0-1.7-.07-3.55-.07h-2.83Z"/><path class="cls-2" d="M177.3,87.18a20.25,20.25,0,0,1-.44-4.21,13.69,13.69,0,0,1-10,4.21,10.52,10.52,0,0,1-6.78-2.06,6.93,6.93,0,0,1-2.5-5.73V67.66l0-2.56a14.74,14.74,0,0,0-.27-3.34,3.86,3.86,0,0,0-1-1.78,7,7,0,0,0-3.51-1.35v-.74h9.92V75a40.79,40.79,0,0,0,.25,5.35,7.71,7.71,0,0,0,.93,2.85A5,5,0,0,0,166,85a7.07,7.07,0,0,0,3.09.66,8.6,8.6,0,0,0,3.54-.74,6.38,6.38,0,0,0,2.59-2,7.23,7.23,0,0,0,1.3-3,35.14,35.14,0,0,0,.32-5.66V67.6l0-2.5a15.66,15.66,0,0,0-.25-3.34,3.57,3.57,0,0,0-1-1.78A6.79,6.79,0,0,0,172,58.63v-.74h9.92v18.3a43.58,43.58,0,0,0,.19,4.87,5.68,5.68,0,0,0,.72,2.27,3.85,3.85,0,0,0,1.42,1.37,6.14,6.14,0,0,0,2.33.52v.71Z"/><path class="cls-2" d="M198,62.57a9.89,9.89,0,0,1,2.73-3.2,10.74,10.74,0,0,1,6.38-2,5,5,0,0,1,3.34,1,2.7,2.7,0,0,1,1.05,2.16,2.07,2.07,0,0,1-.63,1.55,2.21,2.21,0,0,1-1.6.61,2.6,2.6,0,0,1-2-1l-1.05-1.14a3.91,3.91,0,0,0-2.93-1.32q-2.3,0-3.58,3a21.43,21.43,0,0,0-1.28,8.25V76.8l0,2.56a14.91,14.91,0,0,0,.27,3.35,3.48,3.48,0,0,0,1.05,1.77,6.89,6.89,0,0,0,3.47,1.38v.71H188.37v-.71a8.89,8.89,0,0,0,2.9-.75,3.48,3.48,0,0,0,1.42-1.66,7.28,7.28,0,0,0,.52-2.34c.1-1,.15-2.54.15-4.51V68.3a44.71,44.71,0,0,0-.17-4.85,5.2,5.2,0,0,0-.74-2.26,3.52,3.52,0,0,0-1.38-1.36,6,6,0,0,0-2.33-.52V58.6l8.7-1.22A28,28,0,0,1,198,62.57Z"/><path class="cls-2" d="M219.55,68.21c-.09,1.11-.13,1.91-.13,2.4a19.56,19.56,0,0,0,.85,5.74A13.8,13.8,0,0,0,222.61,81a10.91,10.91,0,0,0,8.44,4,9.93,9.93,0,0,0,3.45-.6,7.49,7.49,0,0,0,2.71-1.69A9.58,9.58,0,0,0,239.29,79l.71.24a9.43,9.43,0,0,1-3.76,6,13.22,13.22,0,0,1-7.68,2,17.44,17.44,0,0,1-7.12-1.32,12.51,12.51,0,0,1-5-4,15.17,15.17,0,0,1-2.87-9.38q0-7.59,5.44-11.91a14.08,14.08,0,0,1,9-3.14,12.79,12.79,0,0,1,5,1,10.22,10.22,0,0,1,6.35,9.87Zm14.71-1.31A12.74,12.74,0,0,0,233,61.7a7,7,0,0,0-2.42-2.61,5.84,5.84,0,0,0-3.22-1,6.55,6.55,0,0,0-5.06,2.5,11.17,11.17,0,0,0-2.57,6.28Z"/><path class="cls-3" d="M66.45,42.44c-11.91-.62-14.63-15.8-17.74-25.6A41.05,41.05,0,0,0,45,8.26S58.45,9.61,68.6,15.05A23.43,23.43,0,0,0,65,20a20.21,20.21,0,0,0-1.42,3.58C60,20.12,56.44,17,53.52,14.65c-3.44-2.79-5.93-4.56-6.22-4.76.24.19,2,1.54,4.54,3.72-1.38-1.13-2.78-2.25-4.18-3.34A160.44,160.44,0,0,1,63.1,25.57C62.14,30.71,63.26,36.36,66.45,42.44Z"/><path class="cls-3" d="M72.37,34.18l-1,1.34-.25.34-.45-.67c-1.94-2.8-4-5.51-6.26-8.13.07-.59.17-1.16.29-1.72l0,0A111,111,0,0,1,72.25,34Z"/><path class="cls-3" d="M78.54,43.83l-2.49,1A24.37,24.37,0,0,0,75,42.36c-.41-.82-.86-1.63-1.32-2.44l-.35-.59c.34-.6.7-1.19,1-1.79l.25-.38c.35.5.7,1,1,1.53.53.81,1,1.63,1.54,2.48A27.51,27.51,0,0,1,78.54,43.83Z"/><path class="cls-3" d="M110.19.23a55.11,55.11,0,0,0-4.85,11.35c-4.93,15.52-9,41.32-34.21,32l.55-1.21c.4-.82.81-1.63,1.26-2.43.11-.21.22-.41.34-.61.34-.6.7-1.19,1-1.79l.25-.38,1.24-2a103.37,103.37,0,0,1,6.71-9c2.37-2.92,4.94-5.69,7.55-8.42,1.32-1.36,2.68-2.68,4-4l4.15-3.88h0l1-.88c4.54-4,7.78-6.48,8-6.64-.2.15-3.55,2.51-8.26,6.32-2.7,2.17-5.83,4.83-9.07,7.79l-.59.49c-2.88,2.49-5.74,5-8.43,7.74a104.7,104.7,0,0,0-7.76,8.52l-.75,1-1,1.34-.25.34c-.49.67-1,1.34-1.45,2S68.54,39.53,68,40.38l-.51.86c-2.73-5.38-3.61-10.08-3.14-14.18.07-.59.17-1.16.29-1.72C69.18,4.34,110.19.23,110.19.23Z"/><line class="cls-4" x1="194.6" y1="109.91" x2="240" y2="109.91"/><line class="cls-4" y1="109.91" x2="45.4" y2="109.91"/></svg>