<svg xmlns="http://www.w3.org/2000/svg" width="19.809" height="22.293" viewBox="0 0 19.809 22.293">
  <defs>
    <style>
      .cls-1 {
        fill: #272727;
      }
    </style>
  </defs>
  <path id="Path_56" data-name="Path 56" class="cls-1" d="M-1001.442,3940.471l1.658,3.783a53.5,53.5,0,0,1,2.283-5.458c.118.216.2.348.266.489a45.306,45.306,0,0,1,2.2,5.5,3.4,3.4,0,0,1,.059,2.528,6.954,6.954,0,0,1-1.75,2.236.055.055,0,0,1-.025.017c-.6.138-.568.6-.537,1.059.012.186,0,.373,0,.633.209-.128.363-.212.506-.311.447-.308.889-.62,1.334-.93a.585.585,0,0,1,.2-.122.962.962,0,0,1,.273.026,1.091,1.091,0,0,1-.066.291c-.034.063-.123.1-.189.144q-2.294,1.58-4.588,3.159-3,2.07-5.993,4.145-2.442,1.685-4.889,3.361c-.033.022-.067.058-.1.061-.112.009-.225.005-.338.007.039-.11.045-.261.122-.322.316-.246.654-.465.984-.694l.842-.579c-.379-.132-.664-.236-.951-.331-.772-.255-1.546-.506-2.318-.76-.038-.013-.09-.017-.11-.043-.058-.08-.1-.168-.154-.253.09-.043.193-.137.267-.119.311.077.613.186.918.287.857.284,1.712.574,2.573.846a.481.481,0,0,0,.366-.044c.752-.5,1.494-1.016,2.237-1.53.036-.025.057-.074.106-.142-.566-.191-1.1-.377-1.642-.554q-2.732-.891-5.465-1.777a.418.418,0,0,1-.211-.106c-.048-.07-.09-.228-.058-.253a.36.36,0,0,1,.285-.072c.452.135.9.293,1.345.439q3.047,1,6.1,1.986a.363.363,0,0,0,.277-.034c.781-.528,1.555-1.065,2.381-1.634a2.169,2.169,0,0,0-.3-.157q-3.861-1.266-7.723-2.528c-1-.327-2-.659-3-.989-.038-.013-.089-.018-.11-.046-.068-.092-.126-.192-.187-.29.108-.032.232-.115.323-.087.6.178,1.185.38,1.777.574l6.432,2.111c.971.32,1.943.637,2.911.968a.647.647,0,0,0,.646-.08c.762-.529.768-.522.769-1.464,0-.582,0-1.165-.007-1.747,0-.1-.047-.25-.113-.278a4.42,4.42,0,0,1-1.734-1.668,2.813,2.813,0,0,1-.607-2.517c.288-1.021.607-2.039.99-3.028.453-1.168.987-2.3,1.488-3.455a2.5,2.5,0,0,1,.141-.248Zm3.99-.718c-.08.086-.124.116-.142.157a37.413,37.413,0,0,0-2.1,5.463,2.491,2.491,0,0,0-.042,1.509,5.745,5.745,0,0,0,1.682,2.308.92.92,0,0,0,1.238-.091,16.08,16.08,0,0,0,1.22-1.482,2.248,2.248,0,0,0,.338-2.09c-.411-1.224-.829-2.445-1.279-3.654C-996.8,3941.172-997.129,3940.5-997.452,3939.753Zm-4.018,1.653h-.1c-.126.278-.254.556-.378.835a34.449,34.449,0,0,0-1.766,4.663,2.574,2.574,0,0,0,.123,2.015,7.145,7.145,0,0,0,1.451,1.83.888.888,0,0,0,1.14.064,6.245,6.245,0,0,0,1.567-1.919.6.6,0,0,0-.078-.736,3.141,3.141,0,0,1-.539-3.011.8.8,0,0,0-.036-.486c-.235-.618-.487-1.231-.746-1.84C-1001.033,3942.345-1001.255,3941.877-1001.469,3941.406Zm.15,12.611a2.679,2.679,0,0,0,.28-.139c1.066-.735,2.132-1.469,3.191-2.214a.43.43,0,0,0,.153-.3c.016-.441.016-.884,0-1.325a.443.443,0,0,0-.156-.288c-.286-.229-.59-.434-.885-.652-.076-.056-.143-.126-.235-.209-.116.2-.2.371-.307.524a4.982,4.982,0,0,1-1.9,1.954c-.074.033-.126.192-.129.294-.013.552-.006,1.1-.006,1.657Z" transform="translate(1014.564 -3938.795)"/>
</svg>
