<svg xmlns="http://www.w3.org/2000/svg" width="57.287" height="57.287" viewBox="0 0 57.287 57.287">
  <defs>
    <style>
      .cls-1 {
        fill: none;
        stroke-linecap: round;
        stroke-linejoin: bevel;
      }

      .cls-2, .cls-3 {
        stroke: none;
      }

      .cls-3 {
        fill: #e12c11;
      }
    </style>
  </defs>
  <g id="Icon_awesome-user-circle" data-name="Icon awesome-user-circle" class="cls-1" transform="translate(2 1.438)">
    <path class="cls-2" d="M26.643.563A26.643,26.643,0,1,0,53.287,27.206,26.639,26.639,0,0,0,26.643.563Zm0,10.314a9.454,9.454,0,1,1-9.454,9.454A9.454,9.454,0,0,1,26.643,10.876Zm0,36.957A20.587,20.587,0,0,1,10.9,40.506a11.978,11.978,0,0,1,10.582-6.425,2.629,2.629,0,0,1,.763.118,14.224,14.224,0,0,0,4.394.741,14.17,14.17,0,0,0,4.394-.741,2.629,2.629,0,0,1,.763-.118,11.978,11.978,0,0,1,10.582,6.425A20.587,20.587,0,0,1,26.643,47.833Z"/>
    <path class="cls-3" d="M 26.64349555969238 0.5624961853027344 C 11.92511367797852 0.5624961853027344 -3.814697265625e-06 12.48761749267578 -3.814697265625e-06 27.20599746704102 C -3.814697265625e-06 41.92437744140625 11.92511367797852 53.8494987487793 26.64349555969238 53.8494987487793 C 41.36187744140625 53.8494987487793 53.2869873046875 41.92437744140625 53.2869873046875 27.20599746704102 C 53.2869873046875 12.48761749267578 41.36187744140625 0.5624961853027344 26.64349555969238 0.5624961853027344 M 26.64349555969238 29.78439712524414 C 21.42222595214844 29.78439712524414 17.18934631347656 25.55151748657227 17.18934631347656 20.33025741577148 C 17.18934631347656 15.10898590087891 21.42222595214844 10.87611770629883 26.64349555969238 10.87611770629883 C 31.86475563049316 10.87611770629883 36.09763336181641 15.10898590087891 36.09763336181641 20.33025741577148 C 36.09763336181641 25.55151748657227 31.86475563049316 29.78439712524414 26.64349555969238 29.78439712524414 M 26.64349555969238 34.94120788574219 C 28.17979621887207 34.94120788574219 29.65163612365723 34.65113830566406 31.03752517700195 34.19991683959961 C 31.28462600708008 34.12471008300781 31.54246520996094 34.08173751831055 31.80030632019043 34.08173751831055 C 36.40919494628906 34.08173751831055 40.36274719238281 36.70311737060547 42.38249588012695 40.50625610351563 C 38.60083770751953 44.97549819946289 32.94983673095703 47.83321762084961 26.64349555969238 47.83321762084961 C 20.33715438842773 47.83321762084961 14.6861572265625 44.97549819946289 10.90449523925781 40.50625610351563 C 12.92424392700195 36.70310974121094 16.8777961730957 34.08173751831055 21.48668479919434 34.08173751831055 C 21.74452590942383 34.08173751831055 22.00237464904785 34.12471008300781 22.24946594238281 34.19991683959961 C 23.64610481262207 34.65113830566406 25.1071949005127 34.94120788574219 26.64349555969238 34.94120788574219 M 26.64349555969238 -1.437503814697266 C 30.51033592224121 -1.437503814697266 34.26217651367188 -0.6800918579101563 37.79478454589844 0.8136863708496094 C 41.20611572265625 2.256187438964844 44.26915740966797 4.320945739746094 46.89884567260742 6.950637817382813 C 49.52853393554688 9.580326080322266 51.59330749511719 12.64337921142578 53.03579711914063 16.0546989440918 C 54.52957534790039 19.58731842041016 55.2869873046875 23.33915710449219 55.2869873046875 27.20599746704102 C 55.2869873046875 31.07283782958984 54.52957534790039 34.82467651367188 53.03579711914063 38.3572998046875 C 51.59330749511719 41.76861572265625 49.52853393554688 44.83166885375977 46.89884567260742 47.46135711669922 C 44.26915740966797 50.09104919433594 41.20611572265625 52.15580749511719 37.79478454589844 53.59830856323242 C 34.26217651367188 55.09208679199219 30.51033592224121 55.8494987487793 26.64349555969238 55.8494987487793 C 22.77665519714355 55.8494987487793 19.02481460571289 55.09208679199219 15.49219512939453 53.59830856323242 C 12.08087539672852 52.15580749511719 9.017826080322266 50.09104919433594 6.388134002685547 47.46135711669922 C 3.758445739746094 44.83166885375977 1.693687438964844 41.76861572265625 0.2511863708496094 38.3572998046875 C -1.242595672607422 34.82467651367188 -2.000003814697266 31.07283782958984 -2.000003814697266 27.20599746704102 C -2.000003814697266 23.33915710449219 -1.242595672607422 19.58731842041016 0.2511863708496094 16.0546989440918 C 1.693687438964844 12.64337921142578 3.758445739746094 9.580326080322266 6.388134002685547 6.950637817382813 C 9.017826080322266 4.320945739746094 12.08087539672852 2.256187438964844 15.49219512939453 0.8136863708496094 C 19.02481460571289 -0.6800918579101563 22.77665519714355 -1.437503814697266 26.64349555969238 -1.437503814697266 Z M 26.64349555969238 27.78439712524414 C 30.75372505187988 27.78439712524414 34.09763336181641 24.44048690795898 34.09763336181641 20.33025741577148 C 34.09763336181641 16.22002792358398 30.75372505187988 12.87611770629883 26.64349555969238 12.87611770629883 C 22.53326606750488 12.87611770629883 19.18934631347656 16.22002792358398 19.18934631347656 20.33025741577148 C 19.18934631347656 24.44048690795898 22.53326606750488 27.78439712524414 26.64349555969238 27.78439712524414 Z M 21.65570259094238 36.10986328125 C 21.57181549072266 36.08548736572266 21.51416969299316 36.08173751831055 21.48668479919434 36.08173751831055 C 18.2623176574707 36.08173751831055 15.2706298828125 37.6580810546875 13.39727783203125 40.27223205566406 C 16.89507293701172 43.82267761230469 21.64732360839844 45.83321762084961 26.64349555969238 45.83321762084961 C 31.63966751098633 45.83321762084961 36.39191436767578 43.82268142700195 39.88971328735352 40.27223587036133 C 38.01635360717773 37.6580810546875 35.02466583251953 36.08173751831055 31.80030632019043 36.08173751831055 C 31.7729663848877 36.08173751831055 31.71578407287598 36.08544540405273 31.63259124755859 36.10948944091797 C 29.9298210144043 36.66139221191406 28.25138282775879 36.94120788574219 26.64349555969238 36.94120788574219 C 25.02526092529297 36.94120788574219 23.39350128173828 36.66925430297852 21.65570259094238 36.10986328125 Z"/>
  </g>
</svg>
